<svg width="43" height="43" viewBox="0 0 43 43" fill="none" xmlns="http://www.w3.org/2000/svg">
<path d="M40.3125 34.9375H38.9688V17.4688C38.9688 16.756 38.6856 16.0724 38.1816 15.5684C37.6776 15.0644 36.994 14.7812 36.2812 14.7812H25.5312V6.71875C25.5312 6.00598 25.2481 5.3224 24.7441 4.8184C24.2401 4.3144 23.5565 4.03125 22.8438 4.03125H6.71875C6.00598 4.03125 5.3224 4.3144 4.8184 4.8184C4.3144 5.3224 4.03125 6.00598 4.03125 6.71875V34.9375H2.6875C2.33112 34.9375 1.98933 35.0791 1.73733 35.3311C1.48532 35.5831 1.34375 35.9249 1.34375 36.2812C1.34375 36.6376 1.48532 36.9794 1.73733 37.2314C1.98933 37.4834 2.33112 37.625 2.6875 37.625H40.3125C40.6689 37.625 41.0107 37.4834 41.2627 37.2314C41.5147 36.9794 41.6562 36.6376 41.6562 36.2812C41.6562 35.9249 41.5147 35.5831 41.2627 35.3311C41.0107 35.0791 40.6689 34.9375 40.3125 34.9375ZM20.1562 22.8438C20.1562 23.2001 20.0147 23.5419 19.7627 23.7939C19.5107 24.0459 19.1689 24.1875 18.8125 24.1875H13.4375C13.0811 24.1875 12.7393 24.0459 12.4873 23.7939C12.2353 23.5419 12.0938 23.2001 12.0938 22.8438C12.0938 22.4874 12.2353 22.1456 12.4873 21.8936C12.7393 21.6416 13.0811 21.5 13.4375 21.5H18.8125C19.1689 21.5 19.5107 21.6416 19.7627 21.8936C20.0147 22.1456 20.1562 22.4874 20.1562 22.8438ZM10.75 10.75H16.125C16.4814 10.75 16.8232 10.8916 17.0752 11.1436C17.3272 11.3956 17.4688 11.7374 17.4688 12.0938C17.4688 12.4501 17.3272 12.7919 17.0752 13.0439C16.8232 13.2959 16.4814 13.4375 16.125 13.4375H10.75C10.3936 13.4375 10.0518 13.2959 9.79983 13.0439C9.54782 12.7919 9.40625 12.4501 9.40625 12.0938C9.40625 11.7374 9.54782 11.3956 9.79983 11.1436C10.0518 10.8916 10.3936 10.75 10.75 10.75ZM10.75 28.2188H16.125C16.4814 28.2188 16.8232 28.3603 17.0752 28.6123C17.3272 28.8643 17.4688 29.2061 17.4688 29.5625C17.4688 29.9189 17.3272 30.2607 17.0752 30.5127C16.8232 30.7647 16.4814 30.9062 16.125 30.9062H10.75C10.3936 30.9062 10.0518 30.7647 9.79983 30.5127C9.54782 30.2607 9.40625 29.9189 9.40625 29.5625C9.40625 29.2061 9.54782 28.8643 9.79983 28.6123C10.0518 28.3603 10.3936 28.2188 10.75 28.2188ZM25.5312 17.4688H36.2812V34.9375H25.5312V17.4688Z" fill="black"/>
<path d="M32.25 28.2188H29.5625C29.2061 28.2188 28.8643 28.3603 28.6123 28.6123C28.3603 28.8643 28.2188 29.2061 28.2188 29.5625C28.2188 29.9189 28.3603 30.2607 28.6123 30.5127C28.8643 30.7647 29.2061 30.9062 29.5625 30.9062H32.25C32.6064 30.9062 32.9482 30.7647 33.2002 30.5127C33.4522 30.2607 33.5938 29.9189 33.5938 29.5625C33.5938 29.2061 33.4522 28.8643 33.2002 28.6123C32.9482 28.3603 32.6064 28.2188 32.25 28.2188Z" fill="black"/>
<path d="M29.5625 24.1875H32.25C32.6064 24.1875 32.9482 24.0459 33.2002 23.7939C33.4522 23.5419 33.5938 23.2001 33.5938 22.8438C33.5938 22.4874 33.4522 22.1456 33.2002 21.8936C32.9482 21.6416 32.6064 21.5 32.25 21.5H29.5625C29.2061 21.5 28.8643 21.6416 28.6123 21.8936C28.3603 22.1456 28.2188 22.4874 28.2188 22.8438C28.2188 23.2001 28.3603 23.5419 28.6123 23.7939C28.8643 24.0459 29.2061 24.1875 29.5625 24.1875Z" fill="black"/>
</svg>
