<svg width="33" height="32" viewBox="0 0 33 32" fill="none" xmlns="http://www.w3.org/2000/svg">
<path d="M16.5 3C13.9288 3 11.4154 3.76244 9.27759 5.1909C7.13975 6.61935 5.47351 8.64968 4.48957 11.0251C3.50563 13.4006 3.24819 16.0144 3.7498 18.5362C4.25141 21.0579 5.48953 23.3743 7.30762 25.1924C9.1257 27.0105 11.4421 28.2486 13.9638 28.7502C16.4856 29.2518 19.0995 28.9944 21.4749 28.0104C23.8503 27.0265 25.8807 25.3603 27.3091 23.2224C28.7376 21.0846 29.5 18.5712 29.5 16C29.4934 12.5542 28.1216 9.25145 25.6851 6.81491C23.2486 4.37837 19.9458 3.00661 16.5 3ZM23.5 17H16.5C16.2348 17 15.9804 16.8946 15.7929 16.7071C15.6054 16.5196 15.5 16.2652 15.5 16V9C15.5 8.73478 15.6054 8.48043 15.7929 8.29289C15.9804 8.10536 16.2348 8 16.5 8C16.7652 8 17.0196 8.10536 17.2071 8.29289C17.3946 8.48043 17.5 8.73478 17.5 9V15H23.5C23.7652 15 24.0196 15.1054 24.2071 15.2929C24.3946 15.4804 24.5 15.7348 24.5 16C24.5 16.2652 24.3946 16.5196 24.2071 16.7071C24.0196 16.8946 23.7652 17 23.5 17Z" fill="black"/>
</svg>
