<svg width="43" height="43" viewBox="0 0 43 43" fill="none" xmlns="http://www.w3.org/2000/svg">
<path d="M29.5625 2.6875H13.4375C12.3697 2.69192 11.3469 3.11806 10.5919 3.87311C9.83681 4.62816 9.41067 5.65096 9.40625 6.71875V36.2812C9.41067 37.349 9.83681 38.3718 10.5919 39.1269C11.3469 39.8819 12.3697 40.3081 13.4375 40.3125H29.5625C30.6303 40.3081 31.6531 39.8819 32.4081 39.1269C33.1632 38.3718 33.5893 37.349 33.5938 36.2812V6.71875C33.5893 5.65096 33.1632 4.62816 32.4081 3.87311C31.6531 3.11806 30.6303 2.69192 29.5625 2.6875V2.6875ZM13.4375 5.375H29.5625C29.9189 5.375 30.2607 5.51657 30.5127 5.76858C30.7647 6.02058 30.9062 6.36237 30.9062 6.71875V8.0625H12.0938V6.71875C12.0938 6.36237 12.2353 6.02058 12.4873 5.76858C12.7393 5.51657 13.0811 5.375 13.4375 5.375V5.375ZM29.5625 37.625H13.4375C13.0811 37.625 12.7393 37.4834 12.4873 37.2314C12.2353 36.9794 12.0938 36.6376 12.0938 36.2812V34.9375H30.9062V36.2812C30.9062 36.6376 30.7647 36.9794 30.5127 37.2314C30.2607 37.4834 29.9189 37.625 29.5625 37.625Z" fill="black"/>
</svg>
