<svg width="33" height="32" viewBox="0 0 33 32" fill="none" xmlns="http://www.w3.org/2000/svg">
<path d="M29.5 7H3.5C2.96957 7 2.46086 7.21071 2.08579 7.58579C1.71071 7.96086 1.5 8.46957 1.5 9V23C1.5 23.5304 1.71071 24.0391 2.08579 24.4142C2.46086 24.7893 2.96957 25 3.5 25H29.5C30.0304 25 30.5391 24.7893 30.9142 24.4142C31.2893 24.0391 31.5 23.5304 31.5 23V9C31.5 8.46957 31.2893 7.96086 30.9142 7.58579C30.5391 7.21071 30.0304 7 29.5 7ZM9.875 23L3.5 17.5375V14.4625L9.875 9H23.125L29.5 14.4625V17.5375L23.125 23H9.875ZM21.5 16C21.5 16.9889 21.2068 17.9556 20.6573 18.7779C20.1079 19.6001 19.327 20.241 18.4134 20.6194C17.4998 20.9978 16.4945 21.0969 15.5245 20.9039C14.5546 20.711 13.6637 20.2348 12.9645 19.5355C12.2652 18.8363 11.789 17.9454 11.5961 16.9755C11.4031 16.0055 11.5022 15.0002 11.8806 14.0866C12.259 13.173 12.8999 12.3921 13.7221 11.8427C14.5444 11.2932 15.5111 11 16.5 11C17.8261 11 19.0979 11.5268 20.0355 12.4645C20.9732 13.4021 21.5 14.6739 21.5 16Z" fill="black"/>
</svg>
