<svg width="33" height="32" viewBox="0 0 33 32" fill="none" xmlns="http://www.w3.org/2000/svg">
<path d="M8.50004 17.4999C8.50172 17.6317 8.477 17.7625 8.42734 17.8845C8.37768 18.0066 8.30408 18.1175 8.21089 18.2107C8.11769 18.3039 8.00678 18.3775 7.8847 18.4272C7.76262 18.4768 7.63183 18.5016 7.50004 18.4999H2.00004C1.81426 18.4984 1.63239 18.4464 1.47387 18.3495C1.31534 18.2527 1.18613 18.1145 1.10004 17.9499C1.01999 17.7822 0.987004 17.596 1.00462 17.411C1.02223 17.2261 1.08978 17.0494 1.20004 16.8999C2.08502 15.7119 3.26593 14.7767 4.62504 14.1874C4.04103 13.6528 3.59233 12.9872 3.31585 12.2453C3.03938 11.5033 2.94304 10.7064 3.03477 9.91999C3.1265 9.13357 3.40367 8.38019 3.84347 7.72183C4.28327 7.06348 4.87313 6.51898 5.5645 6.13315C6.25587 5.74732 7.02898 5.53119 7.82021 5.50254C8.61143 5.4739 9.39815 5.63356 10.1156 5.96839C10.8331 6.30322 11.4607 6.80364 11.947 7.42847C12.4333 8.0533 12.7642 8.78467 12.9125 9.56239C12.9495 9.76494 12.9239 9.97396 12.839 10.1616C12.7541 10.3492 12.6141 10.5064 12.4375 10.6124C10.8208 11.5711 9.59123 13.0661 8.96254 14.8374C8.65262 15.6907 8.49605 16.5921 8.50004 17.4999ZM31.8 16.8999C30.9151 15.7119 29.7341 14.7767 28.375 14.1874C28.959 13.6528 29.4078 12.9872 29.6842 12.2453C29.9607 11.5033 30.057 10.7064 29.9653 9.91999C29.8736 9.13357 29.5964 8.38019 29.1566 7.72183C28.7168 7.06348 28.1269 6.51898 27.4356 6.13315C26.7442 5.74732 25.9711 5.53119 25.1799 5.50254C24.3887 5.4739 23.6019 5.63356 22.8845 5.96839C22.167 6.30322 21.5393 6.80364 21.0531 7.42847C20.5668 8.0533 20.2359 8.78467 20.0875 9.56239C20.0506 9.76494 20.0762 9.97396 20.1611 10.1616C20.2459 10.3492 20.386 10.5064 20.5625 10.6124C22.1814 11.5686 23.4117 13.0645 24.0375 14.8374C24.3475 15.6907 24.504 16.5921 24.5 17.4999C24.4984 17.6317 24.5231 17.7625 24.5727 17.8845C24.6224 18.0066 24.696 18.1175 24.7892 18.2107C24.8824 18.3039 24.9933 18.3775 25.1154 18.4272C25.2375 18.4768 25.3683 18.5016 25.5 18.4999H31C31.1858 18.4999 31.3678 18.4482 31.5258 18.3505C31.6837 18.2529 31.8114 18.1132 31.8945 17.9471C31.9775 17.781 32.0127 17.595 31.996 17.4101C31.9793 17.2251 31.9115 17.0485 31.8 16.8999ZM20.15 22.2624C21.1453 21.4996 21.8765 20.4441 22.241 19.2443C22.6055 18.0445 22.5849 16.7607 22.1821 15.5732C21.7794 14.3857 21.0147 13.3542 19.9956 12.6237C18.9764 11.8932 17.754 11.5003 16.5 11.5003C15.2461 11.5003 14.0237 11.8932 13.0045 12.6237C11.9854 13.3542 11.2207 14.3857 10.8179 15.5732C10.4152 16.7607 10.3946 18.0445 10.7591 19.2443C11.1236 20.4441 11.8548 21.4996 12.85 22.2624C10.9057 23.1256 9.32939 24.6488 8.40004 26.5624C8.3261 26.7145 8.29298 26.8832 8.30393 27.0519C8.31489 27.2207 8.36955 27.3836 8.46254 27.5249C8.54909 27.6698 8.67176 27.7897 8.81857 27.873C8.96537 27.9562 9.13127 28 9.30004 27.9999H23.7C23.8688 28 24.0347 27.9562 24.1815 27.873C24.3283 27.7897 24.451 27.6698 24.5375 27.5249C24.6305 27.3836 24.6852 27.2207 24.6961 27.0519C24.7071 26.8832 24.674 26.7145 24.6 26.5624C23.6707 24.6488 22.0944 23.1256 20.15 22.2624Z" fill="black"/>
</svg>
