<svg width="17" height="16" viewBox="0 0 17 16" fill="none" xmlns="http://www.w3.org/2000/svg">
<path d="M16.8257 4.1251C16.98 3.88221 17.0355 3.5894 16.9805 3.3069C16.9256 3.02439 16.7645 2.77369 16.5303 2.60635C14.3345 1.03321 11.7011 0.187256 8.99987 0.187256C6.29866 0.187256 3.66527 1.03321 1.46941 2.60635C1.23526 2.77369 1.07415 3.02439 1.01922 3.3069C0.96429 3.5894 1.01971 3.88221 1.17409 4.1251V4.1251L8.05066 14.9321C8.15225 15.0918 8.29251 15.2233 8.45843 15.3144C8.62436 15.4055 8.81059 15.4533 8.99987 15.4533C9.18916 15.4533 9.37539 15.4055 9.54132 15.3144C9.70724 15.2233 9.84749 15.0918 9.94909 14.9321L14.0553 8.47744H14.0624L16.8257 4.1251ZM8.99987 14.3274L6.71472 10.7415C7.28286 10.5492 7.76427 10.1614 8.07313 9.64727C8.38198 9.1331 8.49822 8.52596 8.40112 7.93407C8.30402 7.34218 7.99989 6.804 7.54294 6.41546C7.086 6.02693 6.50593 5.81328 5.90612 5.8126C5.56426 5.81095 5.22568 5.87936 4.91127 6.01359C4.59686 6.14782 4.31327 6.34503 4.078 6.59307L3.33269 5.42588C4.97422 4.21532 6.96025 3.56221 8.99987 3.56221C11.0395 3.56221 13.0255 4.21532 14.6671 5.42588L13.4507 7.33135C13.17 7.15314 12.8569 7.03197 12.5294 6.97474C12.2018 6.91752 11.8662 6.92537 11.5417 6.99784C10.8864 7.14421 10.316 7.54492 9.95612 8.11182C9.77792 8.39252 9.65674 8.70557 9.59952 9.0331C9.5423 9.36063 9.55014 9.69623 9.62262 10.0207C9.76898 10.6761 10.1697 11.2464 10.7366 11.6063L8.99987 14.3274Z" fill="#49536E"/>
</svg>
