<svg width="19" height="19" viewBox="0 0 19 19" fill="none" xmlns="http://www.w3.org/2000/svg">
<path d="M16.243 5.09844L15.3852 9.80234C15.3144 10.1909 15.1096 10.5424 14.8064 10.7955C14.5031 11.0486 14.1208 11.1873 13.7258 11.1875H5.56953L5.87891 12.875H13.4375C13.7713 12.875 14.0975 12.974 14.375 13.1594C14.6525 13.3448 14.8688 13.6084 14.9965 13.9167C15.1243 14.2251 15.1577 14.5644 15.0926 14.8917C15.0275 15.2191 14.8667 15.5197 14.6307 15.7557C14.3947 15.9917 14.0941 16.1525 13.7667 16.2176C13.4394 16.2827 13.1001 16.2493 12.7917 16.1215C12.4834 15.9938 12.2198 15.7775 12.0344 15.5C11.849 15.2225 11.75 14.8963 11.75 14.5625C11.7501 14.3707 11.7834 14.1804 11.8484 14H7.71406C7.77913 14.1804 7.81244 14.3707 7.8125 14.5625C7.81301 14.8348 7.74763 15.1031 7.62195 15.3446C7.49626 15.5862 7.314 15.7937 7.09073 15.9495C6.86746 16.1053 6.6098 16.2048 6.33974 16.2394C6.06969 16.2741 5.79526 16.2429 5.53989 16.1485C5.28451 16.0541 5.05577 15.8993 4.87319 15.6973C4.6906 15.4953 4.5596 15.2522 4.49136 14.9886C4.42313 14.725 4.41968 14.4488 4.48131 14.1836C4.54294 13.9184 4.66783 13.6721 4.84531 13.4656L2.89766 2.75H1.625C1.47582 2.75 1.33274 2.69074 1.22725 2.58525C1.12176 2.47976 1.0625 2.33668 1.0625 2.1875C1.0625 2.03832 1.12176 1.89524 1.22725 1.78975C1.33274 1.68426 1.47582 1.625 1.625 1.625H2.89766C3.16023 1.62557 3.41433 1.71798 3.61594 1.8862C3.81755 2.05442 3.95397 2.28787 4.00156 2.54609L4.34609 4.4375H15.6875C15.7696 4.43767 15.8507 4.45605 15.9248 4.4913C15.999 4.52656 16.0644 4.57783 16.1164 4.64141C16.1708 4.70299 16.2105 4.77614 16.2324 4.85533C16.2543 4.93451 16.2579 5.01765 16.243 5.09844Z" fill="#49536E"/>
</svg>
