<svg width="18" height="19" viewBox="0 0 18 19" fill="none" xmlns="http://www.w3.org/2000/svg">
<path d="M15.1875 3.3125H2.8125C2.51413 3.3125 2.22798 3.43103 2.017 3.642C1.80603 3.85298 1.6875 4.13913 1.6875 4.4375V14.5625C1.6875 14.8609 1.80603 15.147 2.017 15.358C2.22798 15.569 2.51413 15.6875 2.8125 15.6875H15.1875C15.4859 15.6875 15.772 15.569 15.983 15.358C16.194 15.147 16.3125 14.8609 16.3125 14.5625V4.4375C16.3125 4.13913 16.194 3.85298 15.983 3.642C15.772 3.43103 15.4859 3.3125 15.1875 3.3125ZM9 11.75C8.10489 11.75 7.24645 11.3944 6.61351 10.7615C5.98058 10.1286 5.625 9.27011 5.625 8.375C5.625 8.22582 5.68426 8.08274 5.78975 7.97725C5.89524 7.87176 6.03832 7.8125 6.1875 7.8125C6.33668 7.8125 6.47976 7.87176 6.58525 7.97725C6.69074 8.08274 6.75 8.22582 6.75 8.375C6.75 8.97174 6.98705 9.54403 7.40901 9.96599C7.83097 10.3879 8.40326 10.625 9 10.625C9.59674 10.625 10.169 10.3879 10.591 9.96599C11.0129 9.54403 11.25 8.97174 11.25 8.375C11.25 8.22582 11.3093 8.08274 11.4148 7.97725C11.5202 7.87176 11.6633 7.8125 11.8125 7.8125C11.9617 7.8125 12.1048 7.87176 12.2102 7.97725C12.3157 8.08274 12.375 8.22582 12.375 8.375C12.375 9.27011 12.0194 10.1286 11.3865 10.7615C10.7536 11.3944 9.89511 11.75 9 11.75ZM2.8125 5.5625V4.4375H15.1875V5.5625H2.8125Z" fill="#49536E"/>
</svg>
