<svg width="18" height="19" viewBox="0 0 18 19" fill="none" xmlns="http://www.w3.org/2000/svg">
<path d="M14.0625 12.3125C13.5638 12.3135 13.0795 12.4795 12.6851 12.7848C12.2908 13.0901 12.0087 13.5174 11.8828 14H5.0625C4.46576 14 3.89347 13.7629 3.47151 13.341C3.04955 12.919 2.8125 12.3467 2.8125 11.75C2.8125 11.1533 3.04955 10.581 3.47151 10.159C3.89347 9.73705 4.46576 9.5 5.0625 9.5H11.8125C12.5584 9.5 13.2738 9.20368 13.8012 8.67624C14.3287 8.14879 14.625 7.43342 14.625 6.6875C14.625 5.94158 14.3287 5.22621 13.8012 4.69876C13.2738 4.17132 12.5584 3.875 11.8125 3.875H5.0625C4.91332 3.875 4.77024 3.93426 4.66475 4.03975C4.55926 4.14524 4.5 4.28832 4.5 4.4375C4.5 4.58668 4.55926 4.72976 4.66475 4.83525C4.77024 4.94074 4.91332 5 5.0625 5H11.8125C12.2601 5 12.6893 5.17779 13.0057 5.49426C13.3222 5.81072 13.5 6.23995 13.5 6.6875C13.5 7.13505 13.3222 7.56428 13.0057 7.88074C12.6893 8.19721 12.2601 8.375 11.8125 8.375H5.0625C4.16739 8.375 3.30895 8.73058 2.67601 9.36351C2.04308 9.99645 1.6875 10.8549 1.6875 11.75C1.6875 12.6451 2.04308 13.5036 2.67601 14.1365C3.30895 14.7694 4.16739 15.125 5.0625 15.125H11.8828C11.988 15.5324 12.2053 15.9022 12.5101 16.1923C12.8149 16.4824 13.1949 16.6812 13.6071 16.7662C14.0192 16.8511 14.4468 16.8188 14.8415 16.6729C15.2362 16.527 15.582 16.2734 15.8398 15.9408C16.0976 15.6082 16.2569 15.21 16.2997 14.7914C16.3425 14.3728 16.2671 13.9506 16.082 13.5727C15.8969 13.1948 15.6095 12.8764 15.2525 12.6537C14.8956 12.4309 14.4833 12.3127 14.0625 12.3125Z" fill="#49536E"/>
</svg>
